<svg xmlns="http://www.w3.org/2000/svg" version="1.1" xmlns:xlink="http://www.w3.org/1999/xlink" xmlns:svgjs="http://svgjs.dev/svgjs" width="1000" height="184" viewBox="0 0 1000 184"><g transform="matrix(1,0,0,1,-0.6060606060606233,-0.6102027534695083)"><svg viewBox="0 0 396 73" data-background-color="#444444" preserveAspectRatio="xMidYMid meet" height="184" width="1000" xmlns="http://www.w3.org/2000/svg" xmlns:xlink="http://www.w3.org/1999/xlink"><g id="tight-bounds" transform="matrix(1,0,0,1,0.2400000000000091,0.24209130980040072)"><svg viewBox="0 0 395.52 72.51581738039917" height="72.51581738039917" width="395.52"><g><svg viewBox="0 0 508.205993161205 93.17600372093024" height="72.51581738039917" width="395.52"><g transform="matrix(1,0,0,1,112.68599316120512,28.79273758985201)"><svg viewBox="0 0 395.5199999999999 35.59052854122622" height="35.59052854122622" width="395.5199999999999"><g id="textblocktransform"><svg viewBox="0 0 395.5199999999999 35.59052854122622" height="35.59052854122622" width="395.5199999999999" id="textblock"><g><svg viewBox="0 0 395.5199999999999 35.59052854122622" height="35.59052854122622" width="395.5199999999999"><g transform="matrix(1,0,0,1,0,0)"><svg width="395.5199999999999" viewBox="1.45 -32.7 378.37 34.050000000000004" height="35.59052854122622" data-palette-color="#f8fabb"><path d="M16.3 0.6Q11.75 0.6 8.4-1.3 5.05-3.2 3.25-6.75 1.45-10.3 1.45-15.15L1.45-15.15Q1.45-20.45 3.6-24.4 5.75-28.35 9.73-30.53 13.7-32.7 18.95-32.7L18.95-32.7Q20.8-32.7 22.93-32.43 25.05-32.15 26.55-31.85 28.05-31.55 28.45-31.45L28.45-31.45 28.75-30.8Q28.65-30.45 28.4-29.2 28.15-27.95 27.85-25.85 27.55-23.75 27.4-21.4L27.4-21.4 22.65-21.1Q22.65-21.3 22.7-22.03 22.75-22.75 22.75-23.7L22.75-23.7Q22.75-25.9 21.4-26.93 20.05-27.95 17.15-27.95L17.15-27.95Q13.2-27.95 11.13-25.15 9.05-22.35 9.05-16.9L9.05-16.9Q9.05-10.75 11.28-7.35 13.5-3.95 17.5-3.95L17.5-3.95Q20.25-3.95 21.8-5.63 23.35-7.3 23.95-10.95L23.95-10.95 28.75-11.25Q28.6-10.4 28.23-7.5 27.85-4.6 27.75-2L27.75-2 27.25-1.4Q27.25-1.35 25.58-0.83 23.9-0.3 21.48 0.15 19.05 0.6 16.3 0.6L16.3 0.6ZM57.15 1.35Q52.25-6.45 47.27-13.85 42.3-21.25 42.3-21.15L42.3-21.15 41.85-21.15 41.8-5.4Q41.8-4.1 42.17-3.63 42.55-3.15 43.5-3.15L43.5-3.15 45.7-3.25 45.95-2.95 45.45 0.2Q44.75 0.15 42.85 0.08 40.95 0 39.05 0L39.05 0Q37.4 0 35.5 0.18 33.6 0.35 33.05 0.4L33.05 0.4 33.4-2.9Q34.95-3.1 35.65-3.83 36.35-4.55 36.4-6.05L36.4-6.05 37-25.9Q37-27.5 36.2-28.15 35.4-28.8 32.95-29.05L32.95-29.05 32.6-29.5 32.95-32.35Q33.5-32.3 35.3-32.2 37.1-32.1 38.65-32.1L38.65-32.1Q39.95-32.1 41.42-32.18 42.9-32.25 43.35-32.3L43.35-32.3Q47.45-25.6 52.17-18.5 56.9-11.4 56.9-11.5L56.9-11.5 57.4-11.5 57.3-26.75Q57.25-27.9 56.87-28.4 56.5-28.9 55.65-28.9L55.65-28.9 53.9-28.85 53.75-29.2 54.1-32.3Q54.8-32.25 56.67-32.18 58.55-32.1 60.45-32.1L60.45-32.1Q61.95-32.1 63.82-32.2 65.7-32.3 66.3-32.35L66.3-32.35 66.05-29.05Q64.35-28.8 63.62-28.1 62.9-27.4 62.85-25.9L62.85-25.9 62.2 0.7 57.15 1.35ZM69.24 0.4L69.64-2.9Q71.69-3.25 72.39-4.1 73.09-4.95 73.09-7.1L73.09-7.1 73.09-26.2Q73.09-27.8 72.77-28.35 72.44-28.9 71.49-28.9L71.49-28.9Q70.94-28.9 70.44-28.85 69.94-28.8 69.79-28.8L69.79-28.8 69.49-29.2 69.89-32.15 76.19-32.1Q78.09-32.1 80.42-32.18 82.74-32.25 83.69-32.3L83.69-32.3Q90.09-32.3 92.89-29.6 95.69-26.9 95.69-22.75L95.69-22.75Q95.69-19.8 94.02-17.18 92.34-14.55 89.59-12.98 86.84-11.4 83.74-11.4L83.74-11.4 79.54-11.4 79.44-7.6Q79.44-5.65 79.62-4.75 79.79-3.85 80.27-3.53 80.74-3.2 81.79-3.2L81.79-3.2Q82.49-3.2 83.14-3.25 83.79-3.3 84.04-3.3L84.04-3.3 84.19-3.05 83.74 0.15Q83.04 0.15 81.17 0.08 79.29 0 77.54 0L77.54 0Q75.84 0 73.02 0.15 70.19 0.3 69.24 0.4L69.24 0.4ZM84.09-15.15Q88.74-16.15 88.74-22L88.74-22Q88.74-25.2 86.94-26.68 85.14-28.15 81.24-28.15L81.24-28.15Q80.54-28.15 80.37-28.03 80.19-27.9 80.14-27.3L80.14-27.3Q79.84-22.8 79.64-15.8L79.64-15.8 84.09-15.15ZM106.74 0.4L107.14-2.9Q109.19-3.25 109.89-4.1 110.59-4.95 110.59-7.1L110.59-7.1 110.59-26.2Q110.59-27.8 110.27-28.35 109.94-28.9 108.99-28.9L108.99-28.9Q108.44-28.9 107.94-28.85 107.44-28.8 107.29-28.8L107.29-28.8 106.99-29.2 107.39-32.15 113.69-32.1Q115.59-32.1 117.91-32.18 120.24-32.25 121.19-32.3L121.19-32.3Q127.59-32.3 130.39-29.6 133.19-26.9 133.19-22.75L133.19-22.75Q133.19-19.8 131.51-17.18 129.84-14.55 127.09-12.98 124.34-11.4 121.24-11.4L121.24-11.4 117.04-11.4 116.94-7.6Q116.94-5.65 117.11-4.75 117.29-3.85 117.77-3.53 118.24-3.2 119.29-3.2L119.29-3.2Q119.99-3.2 120.64-3.25 121.29-3.3 121.54-3.3L121.54-3.3 121.69-3.05 121.24 0.15Q120.54 0.15 118.66 0.08 116.79 0 115.04 0L115.04 0Q113.34 0 110.52 0.15 107.69 0.3 106.74 0.4L106.74 0.4ZM121.59-15.15Q126.24-16.15 126.24-22L126.24-22Q126.24-25.2 124.44-26.68 122.64-28.15 118.74-28.15L118.74-28.15Q118.04-28.15 117.86-28.03 117.69-27.9 117.64-27.3L117.64-27.3Q117.34-22.8 117.14-15.8L117.14-15.8 121.59-15.15ZM155.19 0.6Q152.29 0.6 150.64-3L150.64-3 147.29-9.55 144.49-9.55 144.44-5.7Q144.44-4.35 144.64-3.78 144.84-3.2 145.41-3 145.99-2.8 147.39-2.75L147.39-2.75 147.59-2.5 147.14 0.15Q146.34 0.1 144.31 0.08 142.29 0.05 140.79 0.05L140.79 0.05Q139.19 0.05 137.49 0.15 135.79 0.25 135.29 0.3L135.29 0.3 135.64-2.6Q137.34-2.8 137.91-3.48 138.49-4.15 138.49-5.8L138.49-5.8 138.54-20.45Q138.54-21.5 138.26-21.88 137.99-22.25 137.29-22.25L137.29-22.25 135.84-22.2 135.54-22.55 135.94-25.1 141.24-25.05Q142.99-25.05 144.99-25.13 146.99-25.2 147.79-25.25L147.79-25.25Q152.74-25.25 155.34-23.5 157.94-21.75 157.94-18.4L157.94-18.4Q157.94-16.1 156.54-14.2 155.14-12.3 152.49-11L152.49-11 155.84-5.85Q157.04-4.1 158.09-3.3 159.14-2.5 160.34-2.5L160.34-2.5 160.69-2.05 160.34 0.2 155.19 0.6ZM148.19-13.05Q151.54-14.25 151.54-17.65L151.54-17.65Q151.54-19.65 150.09-20.63 148.64-21.6 145.64-21.6L145.64-21.6Q145.24-21.6 145.11-21.43 144.99-21.25 144.94-20.7L144.94-20.7Q144.64-16.6 144.64-13.45L144.64-13.45 148.19-13.05ZM162.99 0.4L163.28-2.5Q164.99-2.7 165.59-3.43 166.19-4.15 166.19-5.9L166.19-5.9 166.24-20.15Q166.24-21.4 165.99-21.83 165.74-22.25 164.94-22.25L164.94-22.25 163.74-22.2 163.44-22.6 163.78-25.15Q164.59-25.15 166.86-25.1 169.13-25.05 171.74-25.05L171.74-25.05Q180.59-25.05 184.34-25.5L184.34-25.5 184.69-25.05Q184.53-24.4 184.21-22.23 183.88-20.05 183.74-17.75L183.74-17.75 179.59-17.5Q179.59-17.65 179.63-18.13 179.69-18.6 179.69-19.05L179.69-19.05Q179.69-20.15 179.34-20.6 178.99-21.05 177.99-21.23 176.99-21.4 174.69-21.4L174.69-21.4Q173.34-21.4 173.01-21.2 172.69-21 172.63-20.2L172.63-20.2 172.38-14.55 176.09-14.55Q176.99-14.55 178.63-14.68 180.28-14.8 180.84-14.85L180.84-14.85 181.24-14.4 180.63-10.8Q180.09-10.8 178.56-10.85 177.03-10.9 175.34-10.9L175.34-10.9Q173.99-10.9 172.24-10.65L172.24-10.65Q172.13-8.25 172.13-5.75L172.13-5.75Q172.13-4.65 172.28-4.2 172.44-3.75 172.94-3.58 173.44-3.4 174.63-3.4L174.63-3.4Q177.13-3.4 178.28-3.73 179.44-4.05 179.94-4.93 180.44-5.8 180.74-7.8L180.74-7.8 184.53-8.1 184.94-7.65Q184.78-7.05 184.41-4.85 184.03-2.65 183.78-0.2L183.78-0.2 183.34 0.25Q182.09 0.2 177.91 0.1 173.74 0 170.38 0L170.38 0Q168.03 0 165.84 0.18 163.63 0.35 162.99 0.4L162.99 0.4ZM200.33 0.45Q199.68 0.35 197.63 0.18 195.58 0 194.08 0L194.08 0Q192.68 0 190.96 0.18 189.23 0.35 188.68 0.4L188.68 0.4 188.93-2.55Q190.63-2.8 191.23-3.48 191.83-4.15 191.83-5.8L191.83-5.8 191.88-20.15Q191.88-21.4 191.61-21.83 191.33-22.25 190.63-22.25L190.63-22.25Q190.18-22.25 189.81-22.2 189.43-22.15 189.28-22.15L189.28-22.15 189.03-22.55 189.38-25.15Q189.98-25.15 191.63-25.1 193.28-25.05 194.78-25.05L194.78-25.05Q196.63-25.05 198.63-25.13 200.63-25.2 201.38-25.25L201.38-25.25Q207.68-25.25 211.18-22.2 214.68-19.15 214.68-13.55L214.68-13.55Q214.68-9.4 212.88-6.23 211.08-3.05 207.81-1.3 204.53 0.45 200.33 0.45L200.33 0.45ZM199.33-21.45Q198.68-21.45 198.46-21.25 198.23-21.05 198.18-20.5L198.18-20.5Q197.68-10.75 197.68-5.85L197.68-5.85Q197.68-4.3 198.31-3.8 198.93-3.3 200.73-3.3L200.73-3.3Q207.63-3.3 207.63-12.3L207.63-12.3Q207.63-17.15 205.63-19.3 203.63-21.45 199.33-21.45L199.33-21.45ZM217.98 0.3L218.28-2.45Q220.08-2.8 220.63-3.43 221.18-4.05 221.18-5.7L221.18-5.7 221.23-20.25Q221.23-21.45 220.93-21.85 220.63-22.25 219.73-22.25L219.73-22.25 218.38-22.25 218.18-22.65 218.43-25.1 224.38-25.05Q225.48-25.05 227.63-25.15 229.78-25.25 230.48-25.3L230.48-25.3 230.23-22.45Q228.68-22.25 228.21-21.85 227.73-21.45 227.63-20.35L227.63-20.35Q227.13-13 227.13-5.4L227.13-5.4Q227.13-3.8 227.43-3.28 227.73-2.75 228.68-2.75L228.68-2.75Q229.33-2.75 229.75-2.8 230.18-2.85 230.33-2.85L230.33-2.85 230.58-2.55 230.23 0.1Q229.53 0.1 227.61 0.05 225.68 0 223.93 0L223.93 0Q222.48 0 220.53 0.13 218.58 0.25 217.98 0.3L217.98 0.3ZM245.93 0.45Q240.18 0.45 236.93-2.83 233.68-6.1 233.68-11.9L233.68-11.9Q233.68-16.05 235.43-19.13 237.18-22.2 240.45-23.85 243.73-25.5 248.13-25.5L248.13-25.5Q249.68-25.5 251.48-25.28 253.28-25.05 254.55-24.83 255.83-24.6 256.18-24.5L256.18-24.5 256.43-23.95Q256.38-23.7 256.15-22.68 255.93-21.65 255.68-19.95 255.43-18.25 255.33-16.35L255.33-16.35 250.83-16.05Q250.83-16.2 250.85-16.78 250.88-17.35 250.88-18.15L250.88-18.15Q250.88-19.8 249.88-20.55 248.88-21.3 246.73-21.3L246.73-21.3Q243.68-21.3 242.18-19.33 240.68-17.35 240.68-13.25L240.68-13.25Q240.68-8.65 242.33-6.18 243.98-3.7 246.98-3.7L246.98-3.7Q249.08-3.7 250.23-4.9 251.38-6.1 251.83-8.85L251.83-8.85 256.33-9.15Q256.23-8.45 255.93-6.08 255.63-3.7 255.58-1.6L255.58-1.6 255.13-1.1Q254.83-1 253.58-0.63 252.33-0.25 250.28 0.1 248.23 0.45 245.93 0.45L245.93 0.45ZM263.18 0.3L263.48-2.6Q265.38-2.75 266.23-3.08 267.07-3.4 267.35-4.13 267.63-4.85 267.63-6.45L267.63-6.45 267.63-21.55Q265.63-21.5 264.75-21.15 263.88-20.8 263.48-19.8 263.07-18.8 262.77-16.4L262.77-16.4 258.98-16.15Q259.02-17 259.2-19.78 259.38-22.55 259.43-25L259.43-25 259.93-25.5 264.18-25.05 277.07-25.05 281.43-25.5 281.93-25Q281.98-22.45 282.1-19.8 282.23-17.15 282.27-16.4L282.27-16.4 278.48-16.15Q278.18-18.75 277.8-19.8 277.43-20.85 276.63-21.18 275.82-21.5 273.93-21.55L273.93-21.55Q273.52-15.85 273.52-5.5L273.52-5.5Q273.52-4.05 274.02-3.45 274.52-2.85 275.77-2.85L275.77-2.85Q276.57-2.85 277.18-2.9 277.77-2.95 277.93-2.95L277.93-2.95 278.07-2.75 277.73 0.2Q276.88 0.15 274.63 0.08 272.38 0 270.32 0L270.32 0Q268.88 0 266.43 0.13 263.98 0.25 263.18 0.3L263.18 0.3ZM284.72 0.3L285.02-2.45Q286.82-2.8 287.37-3.43 287.92-4.05 287.92-5.7L287.92-5.7 287.97-20.25Q287.97-21.45 287.67-21.85 287.37-22.25 286.47-22.25L286.47-22.25 285.12-22.25 284.92-22.65 285.17-25.1 291.12-25.05Q292.22-25.05 294.37-25.15 296.52-25.25 297.22-25.3L297.22-25.3 296.97-22.45Q295.42-22.25 294.95-21.85 294.47-21.45 294.37-20.35L294.37-20.35Q293.87-13 293.87-5.4L293.87-5.4Q293.87-3.8 294.17-3.28 294.47-2.75 295.42-2.75L295.42-2.75Q296.07-2.75 296.5-2.8 296.92-2.85 297.07-2.85L297.07-2.85 297.32-2.55 296.97 0.1Q296.27 0.1 294.35 0.05 292.42 0 290.67 0L290.67 0Q289.22 0 287.27 0.13 285.32 0.25 284.72 0.3L284.72 0.3ZM312.37 0.45Q306.77 0.45 303.6-2.83 300.42-6.1 300.42-11.9L300.42-11.9Q300.42-16.05 302.07-19.13 303.72-22.2 306.8-23.85 309.87-25.5 313.97-25.5L313.97-25.5Q319.67-25.5 322.82-22.28 325.97-19.05 325.97-13.25L325.97-13.25Q325.97-9.1 324.3-6 322.62-2.9 319.55-1.23 316.47 0.45 312.37 0.45L312.37 0.45ZM313.37-3.3Q316.07-3.3 317.52-5.3 318.97-7.3 318.97-11.1L318.97-11.1Q318.97-16.2 317.4-18.75 315.82-21.3 312.87-21.3L312.87-21.3Q310.22-21.3 308.82-19.35 307.42-17.4 307.42-13.55L307.42-13.55Q307.42-8.4 308.94-5.85 310.47-3.3 313.37-3.3L313.37-3.3ZM349.57-10.15L349.47-20.6Q349.42-21.55 349.12-21.9 348.82-22.25 348.12-22.25L348.12-22.25 346.72-22.25 346.57-22.6 346.82-25.2Q347.42-25.15 349.07-25.1 350.72-25.05 352.42-25.05L352.42-25.05Q354.07-25.05 355.52-25.13 356.97-25.2 357.47-25.25L357.47-25.25 357.27-22.4Q355.92-22.2 355.34-21.65 354.77-21.1 354.72-19.95L354.72-19.95 354.12 0.4 349.17 0.9Q345.37-4.7 342.04-9.33 338.72-13.95 337.82-15.2L337.82-15.2 337.37-15.2 337.37-4.55Q337.37-3.5 337.69-3.1 338.02-2.7 338.82-2.7L338.82-2.7Q339.27-2.7 339.79-2.75 340.32-2.8 340.52-2.8L340.52-2.8 340.77-2.55 340.32 0.15Q339.72 0.15 338.07 0.08 336.42 0 334.82 0L334.82 0Q333.37 0 331.69 0.13 330.02 0.25 329.52 0.3L329.52 0.3 329.87-2.55Q331.12-2.7 331.67-3.25 332.22-3.8 332.27-5L332.27-5 332.82-19.9Q332.82-21.15 332.17-21.63 331.52-22.1 329.52-22.35L329.52-22.35 329.17-22.75 329.47-25.25Q329.92-25.2 331.52-25.13 333.12-25.05 334.47-25.05L334.47-25.05Q335.92-25.05 337.12-25.1 338.32-25.15 338.72-25.2L338.72-25.2Q341.82-20.35 344.99-15.88 348.17-11.4 349.12-10.15L349.12-10.15 349.57-10.15ZM368.07 0.45Q366.12 0.45 364.47 0.13 362.82-0.2 361.87-0.58 360.92-0.95 360.67-1.05L360.67-1.05 360.27-1.65Q360.37-2.25 360.67-4.3 360.97-6.35 361.02-8.2L361.02-8.2 364.77-8.5Q364.77-5.6 365.72-4.53 366.67-3.45 369.12-3.45L369.12-3.45Q370.97-3.45 372.04-4.15 373.12-4.85 373.12-6.05L373.12-6.05Q373.12-7.25 371.92-8.1 370.72-8.95 368.17-10.05L368.17-10.05 367.12-10.5Q364.07-11.85 362.34-13.45 360.62-15.05 360.62-17.6L360.62-17.6Q360.62-19.9 362.04-21.7 363.47-23.5 366.04-24.5 368.62-25.5 371.92-25.5L371.92-25.5Q373.77-25.5 375.37-25.28 376.97-25.05 377.92-24.8 378.87-24.55 379.12-24.45L379.12-24.45 379.47-23.85Q379.37-23.3 379.02-21.33 378.67-19.35 378.47-17.15L378.47-17.15 375.02-16.9 374.62-17.15 374.67-18.35Q374.67-19.95 373.77-20.68 372.87-21.4 370.87-21.4L370.87-21.4Q369.27-21.4 368.22-20.68 367.17-19.95 367.17-18.85L367.17-18.85Q367.17-17.6 368.47-16.78 369.77-15.95 372.57-14.75L372.57-14.75Q374.87-13.75 376.32-12.9 377.77-12.05 378.79-10.7 379.82-9.35 379.82-7.45L379.82-7.45Q379.82-3.85 376.62-1.7 373.42 0.45 368.07 0.45L368.07 0.45Z" opacity="1" transform="matrix(1,0,0,1,0,0)" fill="#f8fabb" class="wordmark-text-0" data-fill-palette-color="primary" id="text-0"></path></svg></g></svg></g></svg></g></svg></g><g><svg viewBox="0 0 104.28392354530659 93.17600372093024" height="93.17600372093024" width="104.28392354530659"><g><svg xmlns="http://www.w3.org/2000/svg" xmlns:xlink="http://www.w3.org/1999/xlink" version="1.1" x="0" y="0" viewBox="36.14300000000009 108.38373995422208 359.8209999999999 321.494260045778" enable-background="new 0 0 425.2 595.28" xml:space="preserve" height="93.17600372093024" width="104.28392354530659" class="icon-icon-0" data-fill-palette-color="accent" id="icon-0"><g fill="#00d1cd" data-fill-palette-color="accent"><g fill="#00d1cd" data-fill-palette-color="accent"><path d="M176.979 156.56l2.126-12.956c0 0-4.917-5.481-4.917-9.468s-0.864-10.913 0.731-13.703c1.595-2.791 6.744-10.838 10.73-10.838s12.341-2.03 15.53-0.834c3.189 1.196 11.153 5.164 13.146 8.751s-1.867 30.944-2.532 31.343c-0.664 0.398-2.79 5.181-2.79 5.181s10.23 2.125 11.161 2.923c0.93 0.797 16.477 15.68 16.477 15.68s-0.797 2.524 0.798 3.72c1.594 1.196 20.596 9.833 22.058 11.029 1.462 1.196 5.847 8.638 5.847 8.638s13.155 9.168 16.079 12.889c2.923 3.721 19.399 13.819 19.399 13.819l10.631 1.595 8.77 6.582 0.266 15.883h-5.314c0 0-4.519-7.512-8.239-8.84-3.72-1.329-4.518-0.035-8.238-1.098-3.721-1.063-5.314-6.928-7.441-7.725-2.126-0.797-26.31-8.513-27.904-9.576s-6.378-4.522-7.707-4.788-6.378-2.925-6.378-2.925l-8.771-5.051-3.188-0.267c0 0-2.924 28.967 1.328 35.346 4.253 6.378 13.819 15.414 17.54 24.45 3.721 9.036 12.757 29.765 16.478 31.359 3.72 1.594 12.225 21.792 13.819 31.359 1.595 9.568 2.126 19.135-1.595 21.793-3.721 2.656-4.252 6.377-7.441 5.314s-9.567-4.783-9.567-4.783 0.531 5.846 5.847 10.631c5.315 4.783 10.631 6.822 16.477 15.857 5.848 9.035 24.982 34.461 24.982 34.461h6.378l4.002 9.123 5.596 1.682 1.732 6.762c0 0-20.288-0.496-26.226-0.99-3.819-0.318-2.744-8.652-6.928-13.361-7.917-8.906-36.108-24.301-37.172-28.021-1.063-3.721-11.694-22.324-17.011-27.639-5.314-5.314-21.261-12.225-22.855-16.477s-4.784-6.379-4.784-6.379l-7.245-0.16-7.106-8.609c-6.378-6.91-12.756-17.142-13.287-19.268-0.532-2.126-5.337-3.791-5.337-3.791s-3.168-5.876-4.763-12.786c-1.594-6.91-4.252-26.592-7.441-35.628-3.188-9.036-17.008-30.836-17.008-30.836s-11.163-13.824-32.955-6.383l-7.973-5.317c0 0-2.126-1.064-5.315 1.063-3.189 2.126-5.847 5.846-9.036 6.377s-4.784 1.063-7.973 3.72c-3.189 2.658-26.044 3.721-31.891 7.973 0 0 0.055 5.847-3.135 6.378-3.189 0.531-6.855 3.189-6.855 3.189v3.721l-2.712 4.252-4.811 1.063-6.923-4.784 3.182-12.756 12.753-5.315c0 0 9.034-4.784 15.413-9.567 6.378-4.784 14.881-10.63 17.539-12.225 2.657-1.595 19.666-7.973 19.666-7.973l0.531-2.126 10.63-2.658c0 0 1.063-4.784 6.378-6.91 5.315-2.126 6.378-6.378 13.288-9.036s19.667-5.847 22.324-8.504 10.63-8.504 12.225-9.567C170.069 160.546 173.125 156.161 176.979 156.56z" fill="#00d1cd" data-fill-palette-color="accent"></path></g><g fill="#00d1cd" data-fill-palette-color="accent"><circle cx="373.109" cy="393.883" r="23" fill="#00d1cd" data-fill-palette-color="accent"></circle></g></g></svg></g></svg></g></svg></g><defs></defs></svg><rect width="395.52" height="72.51581738039917" fill="none" stroke="none" visibility="hidden"></rect></g></svg></g></svg>