<svg xmlns="http://www.w3.org/2000/svg" version="1.1" xmlns:xlink="http://www.w3.org/1999/xlink" xmlns:svgjs="http://svgjs.dev/svgjs" width="1000" height="1000" viewBox="0 0 1000 1000"><rect width="1000" height="1000" fill="#ffffff"></rect><g transform="matrix(0.7,0,0,0.7,149.57575757575756,282.1265587044535)"><svg viewBox="0 0 396 247" data-background-color="#ffffff" preserveAspectRatio="xMidYMid meet" height="623" width="1000" xmlns="http://www.w3.org/2000/svg" xmlns:xlink="http://www.w3.org/1999/xlink"><g id="tight-bounds" transform="matrix(1,0,0,1,0.2400000000000091,-0.09999999999999432)"><svg viewBox="0 0 395.52 247.2" height="247.2" width="395.52"><g><svg></svg></g><g><svg viewBox="0 0 395.52 247.2" height="247.2" width="395.52"><mask id="c912ddf9-9082-48f4-8fa8-1fd85e8b7956"><rect width="640" height="400" fill="white"></rect><rect width="348.05760000000004" height="57.045093365770796" fill="black" y="95.07745331711459" x="23.731199999999973" id="transform-me"></rect></mask><g transform="matrix(1,0,0,1,39.55199999999999,101.79910900983342)"><svg viewBox="0 0 316.416 43.60178198033316" height="43.60178198033316" width="316.416"><g><svg viewBox="0 0 316.416 43.60178198033316" height="43.60178198033316" width="316.416"><g><svg viewBox="0 0 316.416 43.60178198033316" height="43.60178198033316" width="316.416"><g id="textblocktransform"><svg viewBox="0 0 316.416 43.60178198033316" height="43.60178198033316" width="316.416" id="textblock"><g><svg viewBox="0 0 316.416 28.47242283298098" height="28.47242283298098" width="316.416"><g transform="matrix(1,0,0,1,0,0)"><svg width="316.416" viewBox="1.4500000476837158 -32.70000076293945 378.3699951171875 34.04999923706055" height="28.47242283298098" data-palette-color="#767575"><path d="M16.3 0.6Q11.75 0.6 8.4-1.3 5.05-3.2 3.25-6.75 1.45-10.3 1.45-15.15L1.45-15.15Q1.45-20.45 3.6-24.4 5.75-28.35 9.73-30.53 13.7-32.7 18.95-32.7L18.95-32.7Q20.8-32.7 22.93-32.43 25.05-32.15 26.55-31.85 28.05-31.55 28.45-31.45L28.45-31.45 28.75-30.8Q28.65-30.45 28.4-29.2 28.15-27.95 27.85-25.85 27.55-23.75 27.4-21.4L27.4-21.4 22.65-21.1Q22.65-21.3 22.7-22.03 22.75-22.75 22.75-23.7L22.75-23.7Q22.75-25.9 21.4-26.93 20.05-27.95 17.15-27.95L17.15-27.95Q13.2-27.95 11.13-25.15 9.05-22.35 9.05-16.9L9.05-16.9Q9.05-10.75 11.28-7.35 13.5-3.95 17.5-3.95L17.5-3.95Q20.25-3.95 21.8-5.63 23.35-7.3 23.95-10.95L23.95-10.95 28.75-11.25Q28.6-10.4 28.23-7.5 27.85-4.6 27.75-2L27.75-2 27.25-1.4Q27.25-1.35 25.58-0.83 23.9-0.3 21.48 0.15 19.05 0.6 16.3 0.6L16.3 0.6ZM57.15 1.35Q52.25-6.45 47.27-13.85 42.3-21.25 42.3-21.15L42.3-21.15 41.85-21.15 41.8-5.4Q41.8-4.1 42.17-3.63 42.55-3.15 43.5-3.15L43.5-3.15 45.7-3.25 45.95-2.95 45.45 0.2Q44.75 0.15 42.85 0.08 40.95 0 39.05 0L39.05 0Q37.4 0 35.5 0.18 33.6 0.35 33.05 0.4L33.05 0.4 33.4-2.9Q34.95-3.1 35.65-3.83 36.35-4.55 36.4-6.05L36.4-6.05 37-25.9Q37-27.5 36.2-28.15 35.4-28.8 32.95-29.05L32.95-29.05 32.6-29.5 32.95-32.35Q33.5-32.3 35.3-32.2 37.1-32.1 38.65-32.1L38.65-32.1Q39.95-32.1 41.42-32.18 42.9-32.25 43.35-32.3L43.35-32.3Q47.45-25.6 52.17-18.5 56.9-11.4 56.9-11.5L56.9-11.5 57.4-11.5 57.3-26.75Q57.25-27.9 56.87-28.4 56.5-28.9 55.65-28.9L55.65-28.9 53.9-28.85 53.75-29.2 54.1-32.3Q54.8-32.25 56.67-32.18 58.55-32.1 60.45-32.1L60.45-32.1Q61.95-32.1 63.82-32.2 65.7-32.3 66.3-32.35L66.3-32.35 66.05-29.05Q64.35-28.8 63.62-28.1 62.9-27.4 62.85-25.9L62.85-25.9 62.2 0.7 57.15 1.35ZM69.24 0.4L69.64-2.9Q71.69-3.25 72.39-4.1 73.09-4.95 73.09-7.1L73.09-7.1 73.09-26.2Q73.09-27.8 72.77-28.35 72.44-28.9 71.49-28.9L71.49-28.9Q70.94-28.9 70.44-28.85 69.94-28.8 69.79-28.8L69.79-28.8 69.49-29.2 69.89-32.15 76.19-32.1Q78.09-32.1 80.42-32.18 82.74-32.25 83.69-32.3L83.69-32.3Q90.09-32.3 92.89-29.6 95.69-26.9 95.69-22.75L95.69-22.75Q95.69-19.8 94.02-17.18 92.34-14.55 89.59-12.98 86.84-11.4 83.74-11.4L83.74-11.4 79.54-11.4 79.44-7.6Q79.44-5.65 79.62-4.75 79.79-3.85 80.27-3.53 80.74-3.2 81.79-3.2L81.79-3.2Q82.49-3.2 83.14-3.25 83.79-3.3 84.04-3.3L84.04-3.3 84.19-3.05 83.74 0.15Q83.04 0.15 81.17 0.08 79.29 0 77.54 0L77.54 0Q75.84 0 73.02 0.15 70.19 0.3 69.24 0.4L69.24 0.4ZM84.09-15.15Q88.74-16.15 88.74-22L88.74-22Q88.74-25.2 86.94-26.68 85.14-28.15 81.24-28.15L81.24-28.15Q80.54-28.15 80.37-28.03 80.19-27.9 80.14-27.3L80.14-27.3Q79.84-22.8 79.64-15.8L79.64-15.8 84.09-15.15ZM106.74 0.4L107.14-2.9Q109.19-3.25 109.89-4.1 110.59-4.95 110.59-7.1L110.59-7.1 110.59-26.2Q110.59-27.8 110.27-28.35 109.94-28.9 108.99-28.9L108.99-28.9Q108.44-28.9 107.94-28.85 107.44-28.8 107.29-28.8L107.29-28.8 106.99-29.2 107.39-32.15 113.69-32.1Q115.59-32.1 117.91-32.18 120.24-32.25 121.19-32.3L121.19-32.3Q127.59-32.3 130.39-29.6 133.19-26.9 133.19-22.75L133.19-22.75Q133.19-19.8 131.51-17.18 129.84-14.55 127.09-12.98 124.34-11.4 121.24-11.4L121.24-11.4 117.04-11.4 116.94-7.6Q116.94-5.65 117.11-4.75 117.29-3.85 117.77-3.53 118.24-3.2 119.29-3.2L119.29-3.2Q119.99-3.2 120.64-3.25 121.29-3.3 121.54-3.3L121.54-3.3 121.69-3.05 121.24 0.15Q120.54 0.15 118.66 0.08 116.79 0 115.04 0L115.04 0Q113.34 0 110.52 0.15 107.69 0.3 106.74 0.4L106.74 0.4ZM121.59-15.15Q126.24-16.15 126.24-22L126.24-22Q126.24-25.2 124.44-26.68 122.64-28.15 118.74-28.15L118.74-28.15Q118.04-28.15 117.86-28.03 117.69-27.9 117.64-27.3L117.64-27.3Q117.34-22.8 117.14-15.8L117.14-15.8 121.59-15.15ZM155.19 0.6Q152.29 0.6 150.64-3L150.64-3 147.29-9.55 144.49-9.55 144.44-5.7Q144.44-4.35 144.64-3.78 144.84-3.2 145.41-3 145.99-2.8 147.39-2.75L147.39-2.75 147.59-2.5 147.14 0.15Q146.34 0.1 144.31 0.08 142.29 0.05 140.79 0.05L140.79 0.05Q139.19 0.05 137.49 0.15 135.79 0.25 135.29 0.3L135.29 0.3 135.64-2.6Q137.34-2.8 137.91-3.48 138.49-4.15 138.49-5.8L138.49-5.8 138.54-20.45Q138.54-21.5 138.26-21.88 137.99-22.25 137.29-22.25L137.29-22.25 135.84-22.2 135.54-22.55 135.94-25.1 141.24-25.05Q142.99-25.05 144.99-25.13 146.99-25.2 147.79-25.25L147.79-25.25Q152.74-25.25 155.34-23.5 157.94-21.75 157.94-18.4L157.94-18.4Q157.94-16.1 156.54-14.2 155.14-12.3 152.49-11L152.49-11 155.84-5.85Q157.04-4.1 158.09-3.3 159.14-2.5 160.34-2.5L160.34-2.5 160.69-2.05 160.34 0.2 155.19 0.6ZM148.19-13.05Q151.54-14.25 151.54-17.65L151.54-17.65Q151.54-19.65 150.09-20.63 148.64-21.6 145.64-21.6L145.64-21.6Q145.24-21.6 145.11-21.43 144.99-21.25 144.94-20.7L144.94-20.7Q144.64-16.6 144.64-13.45L144.64-13.45 148.19-13.05ZM162.99 0.4L163.28-2.5Q164.99-2.7 165.59-3.43 166.19-4.15 166.19-5.9L166.19-5.9 166.24-20.15Q166.24-21.4 165.99-21.83 165.74-22.25 164.94-22.25L164.94-22.25 163.74-22.2 163.44-22.6 163.78-25.15Q164.59-25.15 166.86-25.1 169.13-25.05 171.74-25.05L171.74-25.05Q180.59-25.05 184.34-25.5L184.34-25.5 184.69-25.05Q184.53-24.4 184.21-22.23 183.88-20.05 183.74-17.75L183.74-17.75 179.59-17.5Q179.59-17.65 179.63-18.13 179.69-18.6 179.69-19.05L179.69-19.05Q179.69-20.15 179.34-20.6 178.99-21.05 177.99-21.23 176.99-21.4 174.69-21.4L174.69-21.4Q173.34-21.4 173.01-21.2 172.69-21 172.63-20.2L172.63-20.2 172.38-14.55 176.09-14.55Q176.99-14.55 178.63-14.68 180.28-14.8 180.84-14.85L180.84-14.85 181.24-14.4 180.63-10.8Q180.09-10.8 178.56-10.85 177.03-10.9 175.34-10.9L175.34-10.9Q173.99-10.9 172.24-10.65L172.24-10.65Q172.13-8.25 172.13-5.75L172.13-5.75Q172.13-4.65 172.28-4.2 172.44-3.75 172.94-3.58 173.44-3.4 174.63-3.4L174.63-3.4Q177.13-3.4 178.28-3.73 179.44-4.05 179.94-4.93 180.44-5.8 180.74-7.8L180.74-7.8 184.53-8.1 184.94-7.65Q184.78-7.05 184.41-4.85 184.03-2.65 183.78-0.2L183.78-0.2 183.34 0.25Q182.09 0.2 177.91 0.1 173.74 0 170.38 0L170.38 0Q168.03 0 165.84 0.18 163.63 0.35 162.99 0.4L162.99 0.4ZM200.33 0.45Q199.68 0.35 197.63 0.18 195.58 0 194.08 0L194.08 0Q192.68 0 190.96 0.18 189.23 0.35 188.68 0.4L188.68 0.4 188.93-2.55Q190.63-2.8 191.23-3.48 191.83-4.15 191.83-5.8L191.83-5.8 191.88-20.15Q191.88-21.4 191.61-21.83 191.33-22.25 190.63-22.25L190.63-22.25Q190.18-22.25 189.81-22.2 189.43-22.15 189.28-22.15L189.28-22.15 189.03-22.55 189.38-25.15Q189.98-25.15 191.63-25.1 193.28-25.05 194.78-25.05L194.78-25.05Q196.63-25.05 198.63-25.13 200.63-25.2 201.38-25.25L201.38-25.25Q207.68-25.25 211.18-22.2 214.68-19.15 214.68-13.55L214.68-13.55Q214.68-9.4 212.88-6.23 211.08-3.05 207.81-1.3 204.53 0.45 200.33 0.45L200.33 0.45ZM199.33-21.45Q198.68-21.45 198.46-21.25 198.23-21.05 198.18-20.5L198.18-20.5Q197.68-10.75 197.68-5.85L197.68-5.85Q197.68-4.3 198.31-3.8 198.93-3.3 200.73-3.3L200.73-3.3Q207.63-3.3 207.63-12.3L207.63-12.3Q207.63-17.15 205.63-19.3 203.63-21.45 199.33-21.45L199.33-21.45ZM217.98 0.3L218.28-2.45Q220.08-2.8 220.63-3.43 221.18-4.05 221.18-5.7L221.18-5.7 221.23-20.25Q221.23-21.45 220.93-21.85 220.63-22.25 219.73-22.25L219.73-22.25 218.38-22.25 218.18-22.65 218.43-25.1 224.38-25.05Q225.48-25.05 227.63-25.15 229.78-25.25 230.48-25.3L230.48-25.3 230.23-22.45Q228.68-22.25 228.21-21.85 227.73-21.45 227.63-20.35L227.63-20.35Q227.13-13 227.13-5.4L227.13-5.4Q227.13-3.8 227.43-3.28 227.73-2.75 228.68-2.75L228.68-2.75Q229.33-2.75 229.75-2.8 230.18-2.85 230.33-2.85L230.33-2.85 230.58-2.55 230.23 0.1Q229.53 0.1 227.61 0.05 225.68 0 223.93 0L223.93 0Q222.48 0 220.53 0.13 218.58 0.25 217.98 0.3L217.98 0.3ZM245.93 0.45Q240.18 0.45 236.93-2.83 233.68-6.1 233.68-11.9L233.68-11.9Q233.68-16.05 235.43-19.13 237.18-22.2 240.45-23.85 243.73-25.5 248.13-25.5L248.13-25.5Q249.68-25.5 251.48-25.28 253.28-25.05 254.55-24.83 255.83-24.6 256.18-24.5L256.18-24.5 256.43-23.95Q256.38-23.7 256.15-22.68 255.93-21.65 255.68-19.95 255.43-18.25 255.33-16.35L255.33-16.35 250.83-16.05Q250.83-16.2 250.85-16.78 250.88-17.35 250.88-18.15L250.88-18.15Q250.88-19.8 249.88-20.55 248.88-21.3 246.73-21.3L246.73-21.3Q243.68-21.3 242.18-19.33 240.68-17.35 240.68-13.25L240.68-13.25Q240.68-8.65 242.33-6.18 243.98-3.7 246.98-3.7L246.98-3.7Q249.08-3.7 250.23-4.9 251.38-6.1 251.83-8.85L251.83-8.85 256.33-9.15Q256.23-8.45 255.93-6.08 255.63-3.7 255.58-1.6L255.58-1.6 255.13-1.1Q254.83-1 253.58-0.63 252.33-0.25 250.28 0.1 248.23 0.45 245.93 0.45L245.93 0.45ZM263.18 0.3L263.48-2.6Q265.38-2.75 266.23-3.08 267.07-3.4 267.35-4.13 267.63-4.85 267.63-6.45L267.63-6.45 267.63-21.55Q265.63-21.5 264.75-21.15 263.88-20.8 263.48-19.8 263.07-18.8 262.77-16.4L262.77-16.4 258.98-16.15Q259.02-17 259.2-19.78 259.38-22.55 259.43-25L259.43-25 259.93-25.5 264.18-25.05 277.07-25.05 281.43-25.5 281.93-25Q281.98-22.45 282.1-19.8 282.23-17.15 282.27-16.4L282.27-16.4 278.48-16.15Q278.18-18.75 277.8-19.8 277.43-20.85 276.63-21.18 275.82-21.5 273.93-21.55L273.93-21.55Q273.52-15.85 273.52-5.5L273.52-5.5Q273.52-4.05 274.02-3.45 274.52-2.85 275.77-2.85L275.77-2.85Q276.57-2.85 277.18-2.9 277.77-2.95 277.93-2.95L277.93-2.95 278.07-2.75 277.73 0.2Q276.88 0.15 274.63 0.08 272.38 0 270.32 0L270.32 0Q268.88 0 266.43 0.13 263.98 0.25 263.18 0.3L263.18 0.3ZM284.72 0.3L285.02-2.45Q286.82-2.8 287.37-3.43 287.92-4.05 287.92-5.7L287.92-5.7 287.97-20.25Q287.97-21.45 287.67-21.85 287.37-22.25 286.47-22.25L286.47-22.25 285.12-22.25 284.92-22.65 285.17-25.1 291.12-25.05Q292.22-25.05 294.37-25.15 296.52-25.25 297.22-25.3L297.22-25.3 296.97-22.45Q295.42-22.25 294.95-21.85 294.47-21.45 294.37-20.35L294.37-20.35Q293.87-13 293.87-5.4L293.87-5.4Q293.87-3.8 294.17-3.28 294.47-2.75 295.42-2.75L295.42-2.75Q296.07-2.75 296.5-2.8 296.92-2.85 297.07-2.85L297.07-2.85 297.32-2.55 296.97 0.1Q296.27 0.1 294.35 0.05 292.42 0 290.67 0L290.67 0Q289.22 0 287.27 0.13 285.32 0.25 284.72 0.3L284.72 0.3ZM312.37 0.45Q306.77 0.45 303.6-2.83 300.42-6.1 300.42-11.9L300.42-11.9Q300.42-16.05 302.07-19.13 303.72-22.2 306.8-23.85 309.87-25.5 313.97-25.5L313.97-25.5Q319.67-25.5 322.82-22.28 325.97-19.05 325.97-13.25L325.97-13.25Q325.97-9.1 324.3-6 322.62-2.9 319.55-1.23 316.47 0.45 312.37 0.45L312.37 0.45ZM313.37-3.3Q316.07-3.3 317.52-5.3 318.97-7.3 318.97-11.1L318.97-11.1Q318.97-16.2 317.4-18.75 315.82-21.3 312.87-21.3L312.87-21.3Q310.22-21.3 308.82-19.35 307.42-17.4 307.42-13.55L307.42-13.55Q307.42-8.4 308.94-5.85 310.47-3.3 313.37-3.3L313.37-3.3ZM349.57-10.15L349.47-20.6Q349.42-21.55 349.12-21.9 348.82-22.25 348.12-22.25L348.12-22.25 346.72-22.25 346.57-22.6 346.82-25.2Q347.42-25.15 349.07-25.1 350.72-25.05 352.42-25.05L352.42-25.05Q354.07-25.05 355.52-25.13 356.97-25.2 357.47-25.25L357.47-25.25 357.27-22.4Q355.92-22.2 355.34-21.65 354.77-21.1 354.72-19.95L354.72-19.95 354.12 0.4 349.17 0.9Q345.37-4.7 342.04-9.33 338.72-13.95 337.82-15.2L337.82-15.2 337.37-15.2 337.37-4.55Q337.37-3.5 337.69-3.1 338.02-2.7 338.82-2.7L338.82-2.7Q339.27-2.7 339.79-2.75 340.32-2.8 340.52-2.8L340.52-2.8 340.77-2.55 340.32 0.15Q339.72 0.15 338.07 0.08 336.42 0 334.82 0L334.82 0Q333.37 0 331.69 0.13 330.02 0.25 329.52 0.3L329.52 0.3 329.87-2.55Q331.12-2.7 331.67-3.25 332.22-3.8 332.27-5L332.27-5 332.82-19.9Q332.82-21.15 332.17-21.63 331.52-22.1 329.52-22.35L329.52-22.35 329.17-22.75 329.47-25.25Q329.92-25.2 331.52-25.13 333.12-25.05 334.47-25.05L334.47-25.05Q335.92-25.05 337.12-25.1 338.32-25.15 338.72-25.2L338.72-25.2Q341.82-20.35 344.99-15.88 348.17-11.4 349.12-10.15L349.12-10.15 349.57-10.15ZM368.07 0.45Q366.12 0.45 364.47 0.13 362.82-0.2 361.87-0.58 360.92-0.95 360.67-1.05L360.67-1.05 360.27-1.65Q360.37-2.25 360.67-4.3 360.97-6.35 361.02-8.2L361.02-8.2 364.77-8.5Q364.77-5.6 365.72-4.53 366.67-3.45 369.12-3.45L369.12-3.45Q370.97-3.45 372.04-4.15 373.12-4.85 373.12-6.05L373.12-6.05Q373.12-7.25 371.92-8.1 370.72-8.95 368.17-10.05L368.17-10.05 367.12-10.5Q364.07-11.85 362.34-13.45 360.62-15.05 360.62-17.6L360.62-17.6Q360.62-19.9 362.04-21.7 363.47-23.5 366.04-24.5 368.62-25.5 371.92-25.5L371.92-25.5Q373.77-25.5 375.37-25.28 376.97-25.05 377.92-24.8 378.87-24.55 379.12-24.45L379.12-24.45 379.47-23.85Q379.37-23.3 379.02-21.33 378.67-19.35 378.47-17.15L378.47-17.15 375.02-16.9 374.62-17.15 374.67-18.35Q374.67-19.95 373.77-20.68 372.87-21.4 370.87-21.4L370.87-21.4Q369.27-21.4 368.22-20.68 367.17-19.95 367.17-18.85L367.17-18.85Q367.17-17.6 368.47-16.78 369.77-15.95 372.57-14.75L372.57-14.75Q374.87-13.75 376.32-12.9 377.77-12.05 378.79-10.7 379.82-9.35 379.82-7.45L379.82-7.45Q379.82-3.85 376.62-1.7 373.42 0.45 368.07 0.45L368.07 0.45Z" opacity="1" transform="matrix(1,0,0,1,0,0)" fill="#767575" class="wordmark-text-0" data-fill-palette-color="primary" id="text-0"></path></svg></g></svg></g><g transform="matrix(1,0,0,1,130.6481664,35.194078525699794)"><svg viewBox="0 0 185.7678336 8.40770345463336" height="8.40770345463336" width="185.7678336"><g transform="matrix(1,0,0,1,0,0)"><svg width="185.7678336" viewBox="2.299999952316284 -32.54999923706055 744.52001953125 33.70000076293945" height="8.40770345463336" data-palette-color="#767575"><path d="M2.3 0.45L2.55-2Q4.35-2.3 4.98-3 5.6-3.7 5.6-5.4L5.6-5.4 5.65-20.55Q5.65-21.8 5.38-22.23 5.1-22.65 4.25-22.65L4.25-22.65 2.95-22.6 2.75-22.85 3.1-25.05Q3.8-25.05 5.78-25 7.75-24.95 10.05-24.95L10.05-24.95Q18-24.95 21.6-25.4L21.6-25.4 21.85-25.1Q21.75-24.5 21.43-22.4 21.1-20.3 20.95-18.05L20.95-18.05 17.8-17.85 17.85-19.5Q17.85-20.65 17.55-21.18 17.25-21.7 16.3-21.88 15.35-22.05 13.2-22.05L13.2-22.05Q12.05-22.05 11.58-21.95 11.1-21.85 10.95-21.6 10.8-21.35 10.8-20.7L10.8-20.7 10.45-13.6 14.4-13.55Q15.2-13.55 16.73-13.7 18.25-13.85 18.75-13.9L18.75-13.9 19-13.6 18.45-10.5Q17.95-10.5 16.53-10.55 15.1-10.6 13.5-10.6L13.5-10.6Q12.1-10.6 10.35-10.35L10.35-10.35 10.25-5.25Q10.25-3.7 10.6-3.23 10.95-2.75 12.05-2.75L12.05-2.75Q12.85-2.75 13.65-2.83 14.45-2.9 14.75-2.9L14.75-2.9 15-2.55 14.6 0.15Q13.9 0.15 12.03 0.08 10.15 0 8.3 0L8.3 0Q6.55 0 4.7 0.18 2.85 0.35 2.3 0.45L2.3 0.45ZM35.65 0.45Q32.1 0.45 29.45-1.05 26.8-2.55 25.37-5.3 23.95-8.05 23.95-11.75L23.95-11.75Q23.95-15.75 25.67-18.85 27.4-21.95 30.45-23.68 33.5-25.4 37.45-25.4L37.45-25.4Q42.9-25.4 46.1-22.15 49.3-18.9 49.3-13.3L49.3-13.3Q49.3-9.3 47.55-6.18 45.8-3.05 42.7-1.3 39.6 0.45 35.65 0.45L35.65 0.45ZM36.75-2.55Q39.95-2.55 41.85-4.9 43.75-7.25 43.75-11.35L43.75-11.35Q43.75-16.4 41.75-19.2 39.75-22 36.25-22L36.25-22Q33.1-22 31.27-19.68 29.45-17.35 29.45-13.25L29.45-13.25Q29.45-8.2 31.4-5.38 33.35-2.55 36.75-2.55L36.75-2.55ZM64.59 0.45Q61.05 0.45 58.4-1.05 55.75-2.55 54.32-5.3 52.9-8.05 52.9-11.75L52.9-11.75Q52.9-15.75 54.62-18.85 56.35-21.95 59.4-23.68 62.45-25.4 66.4-25.4L66.4-25.4Q71.84-25.4 75.05-22.15 78.25-18.9 78.25-13.3L78.25-13.3Q78.25-9.3 76.5-6.18 74.75-3.05 71.65-1.3 68.55 0.45 64.59 0.45L64.59 0.45ZM65.7-2.55Q68.9-2.55 70.8-4.9 72.7-7.25 72.7-11.35L72.7-11.35Q72.7-16.4 70.7-19.2 68.7-22 65.2-22L65.2-22Q62.05-22 60.22-19.68 58.4-17.35 58.4-13.25L58.4-13.25Q58.4-8.2 60.35-5.38 62.3-2.55 65.7-2.55L65.7-2.55ZM84.69 0.25L85.04-2.15Q86.99-2.3 87.82-2.65 88.64-3 88.89-3.78 89.14-4.55 89.14-6.4L89.14-6.4 89.14-22.3Q86.59-22.2 85.57-21.93 84.54-21.65 84.07-20.68 83.59-19.7 83.29-17.2L83.29-17.2 80.29-17.05Q80.39-17.75 80.59-20.23 80.79-22.7 80.84-25L80.84-25 81.24-25.4 85.14-25 97.94-25 101.89-25.4 102.34-25Q102.39-22.65 102.59-20.28 102.79-17.9 102.84-17.2L102.84-17.2 99.84-17.05Q99.49-19.65 99.04-20.65 98.59-21.65 97.64-21.93 96.69-22.2 94.29-22.3L94.29-22.3Q94.09-19.75 93.92-14.63 93.74-9.5 93.74-5.05L93.74-5.05Q93.74-3.6 94.27-3 94.79-2.4 96.04-2.4L96.04-2.4Q96.89-2.4 97.47-2.45 98.04-2.5 98.19-2.5L98.19-2.5 98.39-2.3 98.04 0.15Q97.29 0.15 95.24 0.08 93.19 0 91.24 0L91.24 0Q89.84 0 87.62 0.1 85.39 0.2 84.69 0.25L84.69 0.25ZM111.49 0Q110.14 0 108.32 0.18 106.49 0.35 105.94 0.4L105.94 0.4 106.19-2Q108.04-2.35 108.64-2.98 109.24-3.6 109.24-5.2L109.24-5.2 109.29-20.65Q109.29-21.8 109.02-22.23 108.74-22.65 107.94-22.65L107.94-22.65 106.54-22.6 106.29-22.85 106.64-25.05Q107.29-25.05 108.92-25 110.54-24.95 111.99-24.95L111.99-24.95Q113.54-24.95 115.34-25.05 117.14-25.15 117.84-25.2L117.84-25.2Q121.99-25.2 124.19-23.65 126.39-22.1 126.39-19.15L126.39-19.15Q126.39-17 125.04-15.43 123.69-13.85 121.89-13.15L121.89-13.15Q124.24-12.7 126.04-11.2 127.84-9.7 127.84-7.35L127.84-7.35Q127.84-5.1 126.52-3.35 125.19-1.6 122.82-0.6 120.44 0.4 117.49 0.4L117.49 0.4Q116.84 0.4 114.94 0.2L114.94 0.2Q112.54 0 111.49 0L111.49 0ZM114.14-14.2Q114.69-14.15 115.97-14.05 117.24-13.95 118.19-13.9L118.19-13.9Q118.19-13.8 119.07-14.28 119.94-14.75 120.64-15.73 121.34-16.7 121.34-18.25L121.34-18.25Q121.34-20.3 119.84-21.3 118.34-22.3 115.19-22.3L115.19-22.3Q114.79-22.3 114.67-22.15 114.54-22 114.49-21.55L114.49-21.55Q114.24-18.8 114.14-14.2L114.14-14.2ZM114.04-11.1L113.89-5Q113.89-3.7 114.82-3.18 115.74-2.65 117.99-2.65L117.99-2.65Q120.14-2.65 121.34-3.73 122.54-4.8 122.54-6.75L122.54-6.75Q122.54-8.45 121.39-9.58 120.24-10.7 117.99-11.1L117.99-11.1 114.04-11.1ZM144.34 0.3L144.19 0.05 144.34-2.1Q146.44-2.3 147.06-2.55 147.69-2.8 147.69-3.55L147.69-3.55Q147.69-4.2 147.39-5L147.39-5 146.44-8.25Q145.39-8.3 142.49-8.3L142.49-8.3Q140.94-8.3 138.44-8.05L138.44-8.05 137.24-4.85Q136.99-3.85 136.99-3.6L136.99-3.6Q136.99-2.85 137.46-2.55 137.94-2.25 139.09-2.25L139.09-2.25 140.94-2.25 141.14-2 140.84 0.25Q140.29 0.2 138.44 0.1 136.59 0 134.94 0L134.94 0Q133.29 0 131.94 0.05 130.59 0.1 130.14 0.1L130.14 0.1 130.44-2.3Q131.44-2.45 132.06-3.03 132.69-3.6 133.24-5L133.24-5 140.79-24.75 146.09-25.4 146.54-25.25Q147.14-23.05 149.09-16.23 151.04-9.4 152.59-5L152.59-5Q153.04-3.55 153.76-2.98 154.49-2.4 156.04-2.25L156.04-2.25 156.19-2 155.89 0.1Q155.39 0.1 153.96 0.05 152.54 0 151.04 0L151.04 0Q148.94 0 146.91 0.13 144.89 0.25 144.34 0.3L144.34 0.3ZM139.34-11.05L142.44-11.05Q144.39-11.05 145.74-11.2L145.74-11.2 143.09-20.2 142.59-20.2 139.34-11.05ZM158.94 0.4L159.24-2.05Q160.79-2.25 161.39-2.98 161.99-3.7 161.99-5.4L161.99-5.4 162.04-20.55Q162.04-21.8 161.74-22.23 161.44-22.65 160.54-22.65L160.54-22.65 159.24-22.6 159.04-22.9 159.34-25.05Q160.24-25.05 160.99-25L160.99-25 164.64-24.95Q165.74-24.95 167.74-25.08 169.74-25.2 170.39-25.25L170.39-25.25 170.09-22.75Q168.74-22.6 168.14-22.3 167.54-22 167.39-21.48 167.24-20.95 167.14-19.75L167.14-19.75Q166.64-13.45 166.64-5.25L166.64-5.25Q166.64-3.65 167.16-3.2 167.69-2.75 169.49-2.75L169.49-2.75Q171.64-2.75 172.69-3.18 173.74-3.6 174.26-4.8 174.79-6 175.19-8.6L175.19-8.6 178.14-8.9 178.34-8.55Q178.24-7.85 177.89-5.33 177.54-2.8 177.24-0.05L177.24-0.05 176.89 0.35Q175.74 0.3 172.04 0.15 168.34 0 165.49 0L165.49 0Q163.34 0 161.41 0.18 159.49 0.35 158.94 0.4L158.94 0.4ZM180.63 0.4L180.93-2.05Q182.48-2.25 183.08-2.98 183.68-3.7 183.68-5.4L183.68-5.4 183.73-20.55Q183.73-21.8 183.43-22.23 183.13-22.65 182.23-22.65L182.23-22.65 180.93-22.6 180.73-22.9 181.03-25.05Q181.93-25.05 182.68-25L182.68-25 186.33-24.95Q187.43-24.95 189.43-25.08 191.43-25.2 192.08-25.25L192.08-25.25 191.78-22.75Q190.43-22.6 189.83-22.3 189.23-22 189.08-21.48 188.93-20.95 188.83-19.75L188.83-19.75Q188.33-13.45 188.33-5.25L188.33-5.25Q188.33-3.65 188.86-3.2 189.38-2.75 191.18-2.75L191.18-2.75Q193.33-2.75 194.38-3.18 195.43-3.6 195.96-4.8 196.48-6 196.88-8.6L196.88-8.6 199.83-8.9 200.03-8.55Q199.93-7.85 199.58-5.33 199.23-2.8 198.93-0.05L198.93-0.05 198.58 0.35Q197.43 0.3 193.73 0.15 190.03 0 187.18 0L187.18 0Q185.03 0 183.11 0.18 181.18 0.35 180.63 0.4L180.63 0.4ZM212.38 0.3L212.68-2.1Q214.38-2.4 214.95-3.05 215.53-3.7 215.53-5.35L215.53-5.35 215.58-20.55Q215.58-21.75 215.28-22.2 214.98-22.65 214.23-22.65L214.23-22.65 212.78-22.6 212.58-22.85 212.93-25.05Q213.68-25.05 214.38-25L214.38-25 217.93-24.95Q219.43-24.95 221.25-25.03 223.08-25.1 223.83-25.15L223.83-25.15Q228.78-25.15 231.08-23.1 233.38-21.05 233.38-17.8L233.38-17.8Q233.38-15.55 232.03-13.5 230.68-11.45 228.43-10.23 226.18-9 223.68-9L223.68-9 220.23-9 220.18-5.9Q220.18-4.3 220.3-3.58 220.43-2.85 220.8-2.6 221.18-2.35 222.03-2.35L222.03-2.35Q222.68-2.35 223.25-2.4 223.83-2.45 224.03-2.45L224.03-2.45 224.13-2.2 223.73 0.1Q223.18 0.1 221.78 0.05 220.38 0 219.03 0L219.03 0Q217.58 0 215.35 0.1 213.13 0.2 212.38 0.3L212.38 0.3ZM224.18-11.7Q228.28-12.45 228.28-17.15L228.28-17.15Q228.28-19.75 226.7-20.95 225.13-22.15 221.68-22.15L221.68-22.15Q221.08-22.15 220.93-22.05 220.78-21.95 220.73-21.5L220.73-21.5 220.63-19.8Q220.58-18.6 220.48-16.68 220.38-14.75 220.33-12.2L220.33-12.2 224.18-11.7ZM255.93 0.6Q253.38 0.6 251.48-3L251.48-3 247.68-10 244.68-10 244.58-5.35Q244.58-3.95 244.78-3.35 244.98-2.75 245.55-2.55 246.13-2.35 247.53-2.3L247.53-2.3 247.68-2.1 247.23 0.15Q246.53 0.1 244.78 0.08 243.03 0.05 241.48 0.05L241.48 0.05Q240.03 0.05 238.55 0.13 237.08 0.2 236.63 0.25L236.63 0.25 236.98-2.2Q238.73-2.45 239.33-3.05 239.93-3.65 239.93-5.35L239.93-5.35 239.98-20.7Q239.98-21.85 239.68-22.25 239.38-22.65 238.63-22.65L238.63-22.65 237.18-22.6 236.98-22.85 237.33-25.05Q237.88-25.05 239.38-25 240.88-24.95 242.33-24.95L242.33-24.95Q243.93-24.95 245.7-25.03 247.48-25.1 248.18-25.15L248.18-25.15Q252.63-25.15 255.08-23.43 257.53-21.7 257.53-18.6L257.53-18.6Q257.53-16.3 256.05-14.38 254.58-12.45 251.83-11.15L251.83-11.15 255.68-5.35Q256.88-3.55 257.95-2.78 259.03-2 260.43-2L260.43-2 260.68-1.65 260.38 0.2 255.93 0.6ZM248.58-12.8Q252.38-14.25 252.38-17.85L252.38-17.85Q252.38-20.1 250.78-21.2 249.18-22.3 245.83-22.3L245.83-22.3Q245.43-22.3 245.28-22.13 245.13-21.95 245.13-21.4L245.13-21.4Q244.78-15.65 244.78-13.2L244.78-13.2 248.58-12.8ZM263.62 0.4L263.87-2.05Q265.62-2.25 266.27-2.98 266.92-3.7 266.92-5.4L266.92-5.4 266.97-20.55Q266.97-21.8 266.7-22.23 266.42-22.65 265.57-22.65L265.57-22.65 264.27-22.6 264.07-22.85 264.42-25.05Q265.12-25.05 267.1-25 269.07-24.95 271.37-24.95L271.37-24.95Q280.02-24.95 283.82-25.4L283.82-25.4 284.07-25.1Q283.97-24.5 283.62-22.45 283.27-20.4 283.12-18.1L283.12-18.1 279.92-17.9Q279.92-18.05 279.97-18.53 280.02-19 280.02-19.5L280.02-19.5Q280.02-20.7 279.67-21.2 279.32-21.7 278.22-21.88 277.12-22.05 274.52-22.05L274.52-22.05Q273.37-22.05 272.9-21.95 272.42-21.85 272.27-21.6 272.12-21.35 272.12-20.7L272.12-20.7 271.82-14.25 275.72-14.2Q276.62-14.2 278.35-14.38 280.07-14.55 280.62-14.6L280.62-14.6 280.87-14.25 280.27-11.2Q279.72-11.2 278.15-11.25 276.57-11.3 274.82-11.3L274.82-11.3Q273.52-11.3 271.67-11.05L271.67-11.05Q271.57-7.85 271.57-5.1L271.57-5.1Q271.57-4 271.75-3.53 271.92-3.05 272.47-2.9 273.02-2.75 274.37-2.75L274.37-2.75Q277.27-2.75 278.55-3.05 279.82-3.35 280.37-4.25 280.92-5.15 281.27-7.3L281.27-7.3 284.17-7.5 284.47-7.2Q284.32-6.6 283.95-4.5 283.57-2.4 283.37-0.1L283.37-0.1 282.97 0.25Q281.67 0.2 277.45 0.1 273.22 0 270.27 0L270.27 0Q268.07 0 266.12 0.18 264.17 0.35 263.62 0.4L263.62 0.4ZM300.37 0.45Q299.72 0.35 297.7 0.18 295.67 0 294.27 0L294.27 0Q292.92 0 291.3 0.18 289.67 0.35 289.17 0.4L289.17 0.4 289.42-2.05Q291.22-2.35 291.85-3.05 292.47-3.75 292.47-5.35L292.47-5.35 292.47-20.55Q292.47-21.75 292.2-22.2 291.92-22.65 291.12-22.65L291.12-22.65Q290.72-22.65 290.32-22.6 289.92-22.55 289.77-22.55L289.77-22.55 289.57-22.85 289.92-25.05Q290.47-25.05 291.92-25 293.37-24.95 294.82-24.95L294.82-24.95Q296.62-24.95 298.57-25.03 300.52-25.1 301.27-25.15L301.27-25.15Q307.47-25.15 311.05-22.03 314.62-18.9 314.62-13.45L314.62-13.45Q314.62-9.45 312.77-6.28 310.92-3.1 307.7-1.33 304.47 0.45 300.37 0.45L300.37 0.45ZM298.87-22.15Q298.17-22.15 297.92-21.95 297.67-21.75 297.62-21.2L297.62-21.2Q297.07-10.05 297.07-5.55L297.07-5.55Q297.07-3.8 297.87-3.18 298.67-2.55 301.02-2.55L301.02-2.55Q304.87-2.55 306.95-5.08 309.02-7.6 309.02-12.35L309.02-12.35Q309.02-17.3 306.5-19.73 303.97-22.15 298.87-22.15L298.87-22.15ZM318.67 0.4L318.97-2Q320.82-2.35 321.42-3 322.02-3.65 322.02-5.3L322.02-5.3 322.07-20.55Q322.07-21.8 321.77-22.23 321.47-22.65 320.57-22.65L320.57-22.65 319.07-22.6 318.92-22.9 319.17-25.05Q320.07-25.05 320.82-25L320.82-25 324.62-24.95Q325.77-24.95 327.64-25.08 329.52-25.2 330.12-25.25L330.12-25.25 329.92-22.85Q328.32-22.65 327.79-22.25 327.27-21.85 327.17-20.7L327.17-20.7Q326.67-10.9 326.67-5L326.67-5Q326.67-3.4 326.99-2.85 327.32-2.3 328.32-2.3L328.32-2.3Q329.02-2.3 329.54-2.35 330.07-2.4 330.22-2.45L330.22-2.45 330.37-2.2 330.02 0.1Q329.37 0.1 327.59 0.05 325.82 0 324.12 0L324.12 0Q322.72 0 320.97 0.18 319.22 0.35 318.67 0.4L318.67 0.4ZM346.47 0.45Q340.82 0.45 337.52-2.83 334.22-6.1 334.22-11.75L334.22-11.75Q334.22-15.85 336.02-18.93 337.82-22 341.07-23.7 344.32-25.4 348.62-25.4L348.62-25.4Q350.17-25.4 351.87-25.2 353.57-25 354.74-24.75 355.92-24.5 356.27-24.45L356.27-24.45 356.47-24.05Q356.42-23.8 356.22-22.83 356.02-21.85 355.77-20.25 355.52-18.65 355.42-16.85L355.42-16.85 351.97-16.65Q351.97-16.8 352.02-17.35 352.07-17.9 352.07-18.65L352.07-18.65Q352.07-20.35 350.84-21.18 349.62-22 347.12-22L347.12-22Q343.62-22 341.72-19.73 339.82-17.45 339.82-13.1L339.82-13.1Q339.82-8.25 341.84-5.53 343.87-2.8 347.47-2.8L347.47-2.8Q349.82-2.8 351.19-4.13 352.57-5.45 353.17-8.35L353.17-8.35 356.57-8.6Q356.47-7.95 356.14-5.73 355.82-3.5 355.67-1.55L355.67-1.55 355.32-1.1Q355.02-1 353.84-0.63 352.67-0.25 350.69 0.1 348.72 0.45 346.47 0.45L346.47 0.45ZM364.01 0.25L364.36-2.15Q366.31-2.3 367.14-2.65 367.96-3 368.21-3.78 368.46-4.55 368.46-6.4L368.46-6.4 368.46-22.3Q365.91-22.2 364.89-21.93 363.86-21.65 363.39-20.68 362.91-19.7 362.61-17.2L362.61-17.2 359.61-17.05Q359.71-17.75 359.91-20.23 360.11-22.7 360.16-25L360.16-25 360.56-25.4 364.46-25 377.26-25 381.21-25.4 381.66-25Q381.71-22.65 381.91-20.28 382.11-17.9 382.16-17.2L382.16-17.2 379.16-17.05Q378.81-19.65 378.36-20.65 377.91-21.65 376.96-21.93 376.01-22.2 373.61-22.3L373.61-22.3Q373.41-19.75 373.24-14.63 373.06-9.5 373.06-5.05L373.06-5.05Q373.06-3.6 373.59-3 374.11-2.4 375.36-2.4L375.36-2.4Q376.21-2.4 376.79-2.45 377.36-2.5 377.51-2.5L377.51-2.5 377.71-2.3 377.36 0.15Q376.61 0.15 374.56 0.08 372.51 0 370.56 0L370.56 0Q369.16 0 366.94 0.1 364.71 0.2 364.01 0.25L364.01 0.25ZM385.21 0.4L385.51-2Q387.36-2.35 387.96-3 388.56-3.65 388.56-5.3L388.56-5.3 388.61-20.55Q388.61-21.8 388.31-22.23 388.01-22.65 387.11-22.65L387.11-22.65 385.61-22.6 385.46-22.9 385.71-25.05Q386.61-25.05 387.36-25L387.36-25 391.16-24.95Q392.31-24.95 394.19-25.08 396.06-25.2 396.66-25.25L396.66-25.25 396.46-22.85Q394.86-22.65 394.34-22.25 393.81-21.85 393.71-20.7L393.71-20.7Q393.21-10.9 393.21-5L393.21-5Q393.21-3.4 393.54-2.85 393.86-2.3 394.86-2.3L394.86-2.3Q395.56-2.3 396.09-2.35 396.61-2.4 396.76-2.45L396.76-2.45 396.91-2.2 396.56 0.1Q395.91 0.1 394.14 0.05 392.36 0 390.66 0L390.66 0Q389.26 0 387.51 0.18 385.76 0.35 385.21 0.4L385.21 0.4ZM412.46 0.45Q408.91 0.45 406.26-1.05 403.61-2.55 402.18-5.3 400.76-8.05 400.76-11.75L400.76-11.75Q400.76-15.75 402.48-18.85 404.21-21.95 407.26-23.68 410.31-25.4 414.26-25.4L414.26-25.4Q419.71-25.4 422.91-22.15 426.11-18.9 426.11-13.3L426.11-13.3Q426.11-9.3 424.36-6.18 422.61-3.05 419.51-1.3 416.41 0.45 412.46 0.45L412.46 0.45ZM413.56-2.55Q416.76-2.55 418.66-4.9 420.56-7.25 420.56-11.35L420.56-11.35Q420.56-16.4 418.56-19.2 416.56-22 413.06-22L413.06-22Q409.91-22 408.08-19.68 406.26-17.35 406.26-13.25L406.26-13.25Q406.26-8.2 408.21-5.38 410.16-2.55 413.56-2.55L413.56-2.55ZM450.56-8.35L450.46-20.95Q450.46-21.85 450.13-22.23 449.81-22.6 449.11-22.6L449.11-22.6 447.66-22.6 447.56-22.85 447.86-25.1Q448.41-25.05 449.83-25 451.26-24.95 452.71-24.95L452.71-24.95Q453.91-24.95 455.41-25.05 456.91-25.15 457.36-25.2L457.36-25.2 457.16-22.8Q455.71-22.6 455.11-22.05 454.51-21.5 454.46-20.3L454.46-20.3 453.91 0.65 450.56 1.15Q446.26-5.2 441.88-11.2 437.51-17.2 437.51-17.1L437.51-17.1 437.16-17.1 437.11-4.05Q437.11-3.05 437.41-2.68 437.71-2.3 438.46-2.3L438.46-2.3 440.31-2.35 440.56-2.2 440.11 0.15Q439.56 0.1 438.11 0.05 436.66 0 435.11 0L435.11 0Q433.86 0 432.38 0.13 430.91 0.25 430.46 0.3L430.46 0.3 430.76-2.1Q432.01-2.25 432.58-2.8 433.16-3.35 433.21-4.55L433.21-4.55 433.76-20.35Q433.76-21.6 433.06-22.08 432.36-22.55 430.36-22.8L430.36-22.8 430.06-23.1 430.41-25.15Q430.86-25.1 432.26-25.03 433.66-24.95 434.76-24.95L434.76-24.95Q436.01-24.95 437.01-25 438.01-25.05 438.36-25.1L438.36-25.1Q441.96-19.65 445.56-14.7 449.16-9.75 450.21-8.35L450.21-8.35 450.56-8.35ZM468.3 0.45Q466.45 0.45 464.9 0.15 463.35-0.15 462.45-0.5 461.55-0.85 461.3-0.95L461.3-0.95 461-1.5Q461.05-1.75 461.18-2.65 461.3-3.55 461.45-5.1 461.6-6.65 461.6-8.15L461.6-8.15 464.55-8.4Q464.55-6.05 464.98-4.83 465.4-3.6 466.4-3.13 467.4-2.65 469.3-2.65L469.3-2.65Q471.45-2.65 472.75-3.53 474.05-4.4 474.05-5.9L474.05-5.9Q474.05-6.95 473.25-7.78 472.45-8.6 471.5-9.1 470.55-9.6 467.95-10.8L467.95-10.8Q464.8-12.3 463.1-13.83 461.4-15.35 461.4-17.8L461.4-17.8Q461.4-20 462.75-21.73 464.1-23.45 466.5-24.43 468.9-25.4 471.9-25.4L471.9-25.4Q473.65-25.4 475.15-25.2 476.65-25 477.55-24.78 478.45-24.55 478.7-24.45L478.7-24.45 478.95-23.95Q478.85-23.4 478.5-21.45 478.15-19.5 477.95-17.3L477.95-17.3 475.35-17.1 475-17.3Q475-17.4 475.03-17.82 475.05-18.25 475.05-18.85L475.05-18.85Q475.05-20.65 474.1-21.4 473.15-22.15 470.8-22.15L470.8-22.15Q468.95-22.15 467.7-21.28 466.45-20.4 466.45-19.1L466.45-19.1Q466.45-17.75 467.8-16.8 469.15-15.85 471.95-14.55L471.95-14.55Q474.35-13.45 475.8-12.58 477.25-11.7 478.3-10.4 479.35-9.1 479.35-7.3L479.35-7.3Q479.35-5 477.98-3.25 476.6-1.5 474.1-0.53 471.6 0.45 468.3 0.45L468.3 0.45ZM499.05 0Q497.7 0 495.87 0.18 494.05 0.35 493.5 0.4L493.5 0.4 493.75-2Q495.6-2.35 496.2-2.98 496.8-3.6 496.8-5.2L496.8-5.2 496.85-20.65Q496.85-21.8 496.57-22.23 496.3-22.65 495.5-22.65L495.5-22.65 494.1-22.6 493.85-22.85 494.2-25.05Q494.85-25.05 496.47-25 498.1-24.95 499.55-24.95L499.55-24.95Q501.1-24.95 502.9-25.05 504.7-25.15 505.4-25.2L505.4-25.2Q509.55-25.2 511.75-23.65 513.95-22.1 513.95-19.15L513.95-19.15Q513.95-17 512.6-15.43 511.25-13.85 509.45-13.15L509.45-13.15Q511.8-12.7 513.6-11.2 515.4-9.7 515.4-7.35L515.4-7.35Q515.4-5.1 514.07-3.35 512.75-1.6 510.37-0.6 508 0.4 505.05 0.4L505.05 0.4Q504.4 0.4 502.5 0.2L502.5 0.2Q500.1 0 499.05 0L499.05 0ZM501.7-14.2Q502.25-14.15 503.52-14.05 504.8-13.95 505.75-13.9L505.75-13.9Q505.75-13.8 506.62-14.28 507.5-14.75 508.2-15.73 508.9-16.7 508.9-18.25L508.9-18.25Q508.9-20.3 507.4-21.3 505.9-22.3 502.75-22.3L502.75-22.3Q502.35-22.3 502.22-22.15 502.1-22 502.05-21.55L502.05-21.55Q501.8-18.8 501.7-14.2L501.7-14.2ZM501.6-11.1L501.45-5Q501.45-3.7 502.37-3.18 503.3-2.65 505.55-2.65L505.55-2.65Q507.7-2.65 508.9-3.73 510.1-4.8 510.1-6.75L510.1-6.75Q510.1-8.45 508.95-9.58 507.8-10.7 505.55-11.1L505.55-11.1 501.6-11.1ZM531.9 0.3L531.75 0.05 531.9-2.1Q534-2.3 534.62-2.55 535.25-2.8 535.25-3.55L535.25-3.55Q535.25-4.2 534.95-5L534.95-5 534-8.25Q532.95-8.3 530.05-8.3L530.05-8.3Q528.5-8.3 526-8.05L526-8.05 524.8-4.85Q524.55-3.85 524.55-3.6L524.55-3.6Q524.55-2.85 525.02-2.55 525.5-2.25 526.65-2.25L526.65-2.25 528.5-2.25 528.7-2 528.4 0.25Q527.85 0.2 526 0.1 524.15 0 522.5 0L522.5 0Q520.85 0 519.5 0.05 518.15 0.1 517.7 0.1L517.7 0.1 518-2.3Q519-2.45 519.62-3.03 520.25-3.6 520.8-5L520.8-5 528.35-24.75 533.65-25.4 534.1-25.25Q534.7-23.05 536.65-16.23 538.6-9.4 540.15-5L540.15-5Q540.6-3.55 541.32-2.98 542.05-2.4 543.6-2.25L543.6-2.25 543.75-2 543.45 0.1Q542.95 0.1 541.52 0.05 540.1 0 538.6 0L538.6 0Q536.5 0 534.47 0.13 532.45 0.25 531.9 0.3L531.9 0.3ZM526.9-11.05L530-11.05Q531.95-11.05 533.3-11.2L533.3-11.2 530.65-20.2 530.15-20.2 526.9-11.05ZM553.49 0.45Q551.64 0.45 550.09 0.15 548.54-0.15 547.64-0.5 546.74-0.85 546.49-0.95L546.49-0.95 546.19-1.5Q546.24-1.75 546.37-2.65 546.49-3.55 546.64-5.1 546.79-6.65 546.79-8.15L546.79-8.15 549.74-8.4Q549.74-6.05 550.17-4.83 550.59-3.6 551.59-3.13 552.59-2.65 554.49-2.65L554.49-2.65Q556.64-2.65 557.94-3.53 559.24-4.4 559.24-5.9L559.24-5.9Q559.24-6.95 558.44-7.78 557.64-8.6 556.69-9.1 555.74-9.6 553.14-10.8L553.14-10.8Q549.99-12.3 548.29-13.83 546.59-15.35 546.59-17.8L546.59-17.8Q546.59-20 547.94-21.73 549.29-23.45 551.69-24.43 554.09-25.4 557.09-25.4L557.09-25.4Q558.84-25.4 560.34-25.2 561.84-25 562.74-24.78 563.64-24.55 563.89-24.45L563.89-24.45 564.14-23.95Q564.04-23.4 563.69-21.45 563.34-19.5 563.14-17.3L563.14-17.3 560.54-17.1 560.19-17.3Q560.19-17.4 560.22-17.82 560.24-18.25 560.24-18.85L560.24-18.85Q560.24-20.65 559.29-21.4 558.34-22.15 555.99-22.15L555.99-22.15Q554.14-22.15 552.89-21.28 551.64-20.4 551.64-19.1L551.64-19.1Q551.64-17.75 552.99-16.8 554.34-15.85 557.14-14.55L557.14-14.55Q559.54-13.45 560.99-12.58 562.44-11.7 563.49-10.4 564.54-9.1 564.54-7.3L564.54-7.3Q564.54-5 563.17-3.25 561.79-1.5 559.29-0.53 556.79 0.45 553.49 0.45L553.49 0.45ZM569.34 0.4L569.59-2.05Q571.34-2.25 571.99-2.98 572.64-3.7 572.64-5.4L572.64-5.4 572.69-20.55Q572.69-21.8 572.41-22.23 572.14-22.65 571.29-22.65L571.29-22.65 569.99-22.6 569.79-22.85 570.14-25.05Q570.84-25.05 572.81-25 574.79-24.95 577.09-24.95L577.09-24.95Q585.74-24.95 589.54-25.4L589.54-25.4 589.79-25.1Q589.69-24.5 589.34-22.45 588.99-20.4 588.84-18.1L588.84-18.1 585.64-17.9Q585.64-18.05 585.69-18.53 585.74-19 585.74-19.5L585.74-19.5Q585.74-20.7 585.39-21.2 585.04-21.7 583.94-21.88 582.84-22.05 580.24-22.05L580.24-22.05Q579.09-22.05 578.62-21.95 578.14-21.85 577.99-21.6 577.84-21.35 577.84-20.7L577.84-20.7 577.54-14.25 581.44-14.2Q582.34-14.2 584.06-14.38 585.79-14.55 586.34-14.6L586.34-14.6 586.59-14.25 585.99-11.2Q585.44-11.2 583.87-11.25 582.29-11.3 580.54-11.3L580.54-11.3Q579.24-11.3 577.39-11.05L577.39-11.05Q577.29-7.85 577.29-5.1L577.29-5.1Q577.29-4 577.46-3.53 577.64-3.05 578.19-2.9 578.74-2.75 580.09-2.75L580.09-2.75Q582.99-2.75 584.26-3.05 585.54-3.35 586.09-4.25 586.64-5.15 586.99-7.3L586.99-7.3 589.89-7.5 590.19-7.2Q590.04-6.6 589.66-4.5 589.29-2.4 589.09-0.1L589.09-0.1 588.69 0.25Q587.39 0.2 583.16 0.1 578.94 0 575.99 0L575.99 0Q573.79 0 571.84 0.18 569.89 0.35 569.34 0.4L569.34 0.4ZM606.09 0.45Q605.44 0.35 603.41 0.18 601.39 0 599.99 0L599.99 0Q598.64 0 597.01 0.18 595.39 0.35 594.89 0.4L594.89 0.4 595.14-2.05Q596.94-2.35 597.56-3.05 598.19-3.75 598.19-5.35L598.19-5.35 598.19-20.55Q598.19-21.75 597.91-22.2 597.64-22.65 596.84-22.65L596.84-22.65Q596.44-22.65 596.04-22.6 595.64-22.55 595.49-22.55L595.49-22.55 595.29-22.85 595.64-25.05Q596.19-25.05 597.64-25 599.09-24.95 600.54-24.95L600.54-24.95Q602.34-24.95 604.29-25.03 606.24-25.1 606.99-25.15L606.99-25.15Q613.19-25.15 616.76-22.03 620.34-18.9 620.34-13.45L620.34-13.45Q620.34-9.45 618.49-6.28 616.64-3.1 613.41-1.33 610.19 0.45 606.09 0.45L606.09 0.45ZM604.59-22.15Q603.89-22.15 603.64-21.95 603.39-21.75 603.34-21.2L603.34-21.2Q602.79-10.05 602.79-5.55L602.79-5.55Q602.79-3.8 603.59-3.18 604.39-2.55 606.74-2.55L606.74-2.55Q610.59-2.55 612.66-5.08 614.74-7.6 614.74-12.35L614.74-12.35Q614.74-17.3 612.21-19.73 609.69-22.15 604.59-22.15L604.59-22.15ZM644.98 0.45Q641.43 0.45 638.78-1.05 636.13-2.55 634.71-5.3 633.28-8.05 633.28-11.75L633.28-11.75Q633.28-15.75 635.01-18.85 636.73-21.95 639.78-23.68 642.83-25.4 646.78-25.4L646.78-25.4Q652.23-25.4 655.43-22.15 658.63-18.9 658.63-13.3L658.63-13.3Q658.63-9.3 656.88-6.18 655.13-3.05 652.03-1.3 648.93 0.45 644.98 0.45L644.98 0.45ZM646.08-2.55Q649.28-2.55 651.18-4.9 653.08-7.25 653.08-11.35L653.08-11.35Q653.08-16.4 651.08-19.2 649.08-22 645.58-22L645.58-22Q642.43-22 640.61-19.68 638.78-17.35 638.78-13.25L638.78-13.25Q638.78-8.2 640.73-5.38 642.68-2.55 646.08-2.55L646.08-2.55ZM683.08-8.35L682.98-20.95Q682.98-21.85 682.65-22.23 682.33-22.6 681.63-22.6L681.63-22.6 680.18-22.6 680.08-22.85 680.38-25.1Q680.93-25.05 682.35-25 683.78-24.95 685.23-24.95L685.23-24.95Q686.43-24.95 687.93-25.05 689.43-25.15 689.88-25.2L689.88-25.2 689.68-22.8Q688.23-22.6 687.63-22.05 687.03-21.5 686.98-20.3L686.98-20.3 686.43 0.65 683.08 1.15Q678.78-5.2 674.4-11.2 670.03-17.2 670.03-17.1L670.03-17.1 669.68-17.1 669.63-4.05Q669.63-3.05 669.93-2.68 670.23-2.3 670.98-2.3L670.98-2.3 672.83-2.35 673.08-2.2 672.63 0.15Q672.08 0.1 670.63 0.05 669.18 0 667.63 0L667.63 0Q666.38 0 664.9 0.13 663.43 0.25 662.98 0.3L662.98 0.3 663.28-2.1Q664.53-2.25 665.1-2.8 665.68-3.35 665.73-4.55L665.73-4.55 666.28-20.35Q666.28-21.6 665.58-22.08 664.88-22.55 662.88-22.8L662.88-22.8 662.58-23.1 662.93-25.15Q663.38-25.1 664.78-25.03 666.18-24.95 667.28-24.95L667.28-24.95Q668.53-24.95 669.53-25 670.53-25.05 670.88-25.1L670.88-25.1Q674.48-19.65 678.08-14.7 681.68-9.75 682.73-8.35L682.73-8.35 683.08-8.35ZM717.32 0.45L717.12 0.1 717.32-2.35Q719.87-2.55 720.7-2.9 721.52-3.25 721.52-4.2L721.52-4.2Q721.52-5.1 721.17-6.3L721.17-6.3 719.77-11Q718.52-11.05 714.87-11.05L714.87-11.05Q712.42-11.05 709.72-10.7L709.72-10.7 708.12-6.1Q707.72-4.8 707.72-4.35L707.72-4.35Q707.72-3.35 708.35-2.93 708.97-2.5 710.42-2.5L710.42-2.5 712.97-2.5 713.12-2.25 712.82 0.3Q712.17 0.25 709.97 0.13 707.77 0 705.72 0L705.72 0Q703.77 0 702.15 0.05 700.52 0.1 699.97 0.15L699.97 0.15 700.37-2.6Q701.67-2.8 702.47-3.58 703.27-4.35 703.97-6.25L703.97-6.25 713.37-31.7 718.57-32.55 719.07-32.4Q719.42-31.15 720.62-26.7 721.82-22.25 723.52-16.38 725.22-10.5 726.67-6.05L726.67-6.05Q727.22-4.2 728.15-3.48 729.07-2.75 731.07-2.55L731.07-2.55 731.22-2.3 730.87 0.15Q730.27 0.1 728.6 0.05 726.92 0 725.22 0L725.22 0Q722.67 0 720.32 0.18 717.97 0.35 717.32 0.45L717.32 0.45ZM710.77-13.95L714.77-13.95Q716.77-13.95 718.97-14.15L718.97-14.15 715.52-26.35 715.02-26.35 710.77-13.95ZM733.17 0.55L733.47-2.15Q735.77-2.6 736.55-3.48 737.32-4.35 737.32-6.45L737.32-6.45 737.37-26.65Q737.37-28.25 737-28.8 736.62-29.35 735.52-29.35L735.52-29.35 733.57-29.25 733.42-29.55 733.77-32.05 737.12-32Q738.22-31.95 740.17-31.95L740.17-31.95Q741.52-31.95 746.52-32.35L746.52-32.35 746.27-29.65Q744.27-29.4 743.57-28.83 742.87-28.25 742.82-26.85L742.82-26.85Q742.57-21.65 742.37-15.53 742.17-9.4 742.17-6.05L742.17-6.05Q742.17-4 742.57-3.33 742.97-2.65 744.22-2.65L744.22-2.65Q745.02-2.65 746.67-2.8L746.67-2.8 746.82-2.55 746.37 0.15Q745.42 0.15 744.87 0.1L744.87 0.1 739.47 0Q736.62 0 733.17 0.55L733.17 0.55Z" opacity="1" transform="matrix(1,0,0,1,0,0)" fill="#767575" class="slogan-text-1" data-fill-palette-color="secondary" id="text-1"></path></svg></g></svg></g></svg></g></svg></g></svg></g></svg></g><g mask="url(#c912ddf9-9082-48f4-8fa8-1fd85e8b7956)"><g transform="matrix(0.7626885716227592, 0, 0, 0.7626885716227592, 60.5443238797713, 1)"><svg xmlns="http://www.w3.org/2000/svg" xmlns:xlink="http://www.w3.org/1999/xlink" version="1.1" x="0" y="0" viewBox="36.14299774169922 108.38374328613281 359.82098388671875 321.4942626953125" enable-background="new 0 0 425.2 595.28" xml:space="preserve" height="321.4942626953125" width="359.82098388671875" class="icon-none" data-fill-palette-color="accent" id="none"><g fill="#111111" data-fill-palette-color="accent"><g fill="#111111" data-fill-palette-color="accent"><path d="M176.979 156.56l2.126-12.956c0 0-4.917-5.481-4.917-9.468s-0.864-10.913 0.731-13.703c1.595-2.791 6.744-10.838 10.73-10.838s12.341-2.03 15.53-0.834c3.189 1.196 11.153 5.164 13.146 8.751s-1.867 30.944-2.532 31.343c-0.664 0.398-2.79 5.181-2.79 5.181s10.23 2.125 11.161 2.923c0.93 0.797 16.477 15.68 16.477 15.68s-0.797 2.524 0.798 3.72c1.594 1.196 20.596 9.833 22.058 11.029 1.462 1.196 5.847 8.638 5.847 8.638s13.155 9.168 16.079 12.889c2.923 3.721 19.399 13.819 19.399 13.819l10.631 1.595 8.77 6.582 0.266 15.883h-5.314c0 0-4.519-7.512-8.239-8.84-3.72-1.329-4.518-0.035-8.238-1.098-3.721-1.063-5.314-6.928-7.441-7.725-2.126-0.797-26.31-8.513-27.904-9.576s-6.378-4.522-7.707-4.788-6.378-2.925-6.378-2.925l-8.771-5.051-3.188-0.267c0 0-2.924 28.967 1.328 35.346 4.253 6.378 13.819 15.414 17.54 24.45 3.721 9.036 12.757 29.765 16.478 31.359 3.72 1.594 12.225 21.792 13.819 31.359 1.595 9.568 2.126 19.135-1.595 21.793-3.721 2.656-4.252 6.377-7.441 5.314s-9.567-4.783-9.567-4.783 0.531 5.846 5.847 10.631c5.315 4.783 10.631 6.822 16.477 15.857 5.848 9.035 24.982 34.461 24.982 34.461h6.378l4.002 9.123 5.596 1.682 1.732 6.762c0 0-20.288-0.496-26.226-0.99-3.819-0.318-2.744-8.652-6.928-13.361-7.917-8.906-36.108-24.301-37.172-28.021-1.063-3.721-11.694-22.324-17.011-27.639-5.314-5.314-21.261-12.225-22.855-16.477s-4.784-6.379-4.784-6.379l-7.245-0.16-7.106-8.609c-6.378-6.91-12.756-17.142-13.287-19.268-0.532-2.126-5.337-3.791-5.337-3.791s-3.168-5.876-4.763-12.786c-1.594-6.91-4.252-26.592-7.441-35.628-3.188-9.036-17.008-30.836-17.008-30.836s-11.163-13.824-32.955-6.383l-7.973-5.317c0 0-2.126-1.064-5.315 1.063-3.189 2.126-5.847 5.846-9.036 6.377s-4.784 1.063-7.973 3.72c-3.189 2.658-26.044 3.721-31.891 7.973 0 0 0.055 5.847-3.135 6.378-3.189 0.531-6.855 3.189-6.855 3.189v3.721l-2.712 4.252-4.811 1.063-6.923-4.784 3.182-12.756 12.753-5.315c0 0 9.034-4.784 15.413-9.567 6.378-4.784 14.881-10.63 17.539-12.225 2.657-1.595 19.666-7.973 19.666-7.973l0.531-2.126 10.63-2.658c0 0 1.063-4.784 6.378-6.91 5.315-2.126 6.378-6.378 13.288-9.036s19.667-5.847 22.324-8.504 10.63-8.504 12.225-9.567C170.069 160.546 173.125 156.161 176.979 156.56z" fill="#111111" data-fill-palette-color="accent"></path></g><g fill="#111111" data-fill-palette-color="accent"><circle cx="373.109" cy="393.883" r="23" fill="#111111" data-fill-palette-color="accent"></circle></g></g></svg></g></g></svg></g><defs></defs></svg><rect width="395.52" height="247.2" fill="none" stroke="none" visibility="hidden"></rect></g></svg></g></svg>